<?xml version="1.0" encoding="utf-8"?>
<!-- Generator: Adobe Illustrator 14.0.0, SVG Export Plug-In . SVG Version: 6.00 Build 43363)  -->
<!DOCTYPE svg PUBLIC "-//W3C//DTD SVG 1.0//EN" "http://www.w3.org/TR/2001/REC-SVG-20010904/DTD/svg10.dtd">
<svg version="1.0" id="Layer_1" xmlns="http://www.w3.org/2000/svg" xmlns:xlink="http://www.w3.org/1999/xlink" x="0px" y="0px"
	 width="600px" height="128px" viewBox="0 0 600 128" enable-background="new 0 0 600 128" xml:space="preserve">
<g>
	<defs>
		<rect id="SVGID_1_" width="600" height="128"/>
	</defs>
	<clipPath id="SVGID_2_">
		<use xlink:href="#SVGID_1_"  overflow="visible"/>
	</clipPath>
	<path clip-path="url(#SVGID_2_)" d="M340.55957,1.294922l44.347656,68.707031V128h46.568359V70.001953l42.686523-69.078125
		h-50.078125l-15.706055,33.25L393.229492,1.294922H340.55957z M400.618164,64.277344
		c3.696289-4.064453,10.717773-4.064453,14.78125-0.371094c3.881836,3.695312,4.068359,10.527344,0.37207,14.595703
		c-3.696289,3.875-10.904297,4.060547-14.966797,0.365234c-3.883789-3.693359-3.883789-10.712891-0.366211-14.775391
		L400.618164,64.277344z M334.466797,60.957031c-5.358398,3.134766-6.841797,10.15625-3.509766,15.324219
		c3.324219,5.357422,10.717773,6.654297,15.704102,3.324219c5.173828-3.136719,6.464844-10.15625,3.324219-15.140625
		C346.661133,59.107422,339.641602,57.626953,334.466797,60.957031 M247.244141,46.175781h21.991211
		c-1.110352,6.466797-7.576172,31.214844-10.349609,41.744141L247.244141,46.175781z M530.891602,42.300781l11.461914,41.746094
		h-22.180664L530.891602,42.300781z M500.957031,8.679688L461.967773,128h46.196289l3.697266-17.359375h38.06543L553.623047,128H600
		L559.162109,0.923828h-55.798828L500.957031,8.679688z M189.59082,1.294922L229.873047,128h55.991211L327.625,1.294922h-46.195312
		l-3.879883,17.546875h-37.696289l-3.879883-17.546875H189.59082z M3.141602,0L0,128h43.241211l1.476562-73.511719L72.4375,128
		h25.128906L123.4375,54.488281L125.099609,128h44.904297L167.233398,0.923828h-53.035156L83.524414,74.068359L54.697266,0H3.141602
		z"/>
</g>
</svg>
