<?xml version="1.0" encoding="utf-8"?>
<!-- Generator: Adobe Illustrator 17.0.0, SVG Export Plug-In . SVG Version: 6.00 Build 0)  -->
<!DOCTYPE svg PUBLIC "-//W3C//DTD SVG 1.1//EN" "http://www.w3.org/Graphics/SVG/1.1/DTD/svg11.dtd">
<svg version="1.1" id="Layer_1" xmlns="http://www.w3.org/2000/svg" xmlns:xlink="http://www.w3.org/1999/xlink" x="0px" y="0px"
	 width="1953px" height="550px" viewBox="0 0 1953 550" enable-background="new 0 0 1953 550" xml:space="preserve">
<g>
	<path fill="#771C61" d="M1312,267c3,0,6,0,9,2c2,1,3,5,5,5c3,0,13-8,13-10c0-10-26-13-27-13c-22,0-34,15-34,34c0,20,12,34,34,34
		c1,0,27-2,27-14c0-2-10-8-12-8c-4,0-9,7-15,7c-8,0-17-8-17-19C1295,276,1299,267,1312,267z"/>
	<path fill="#771C61" d="M926,388l-7-191c0-6-2-14,2-20c2-4,6-6,8-6c3-1,30,3,30-6c0-2-1-3-1-4h-78l-81,198l-71-198h-73
		c-1,1-2,1-2,4c0,1,2,4,4,5h18c13,0,22,10,22,24c0,16-19,100-20,107c-4,24-8,48-13,71c-3,10-1,24-16,30h-18c-3,0-4,2-4,4
		c0,3,1,4,2,5h83c0-1,1-2,1-8c-17-3-37,3-37-21c0-41,23-152,29-175c3,1,3,2,3,3c26,68,51,136,74,204h5c34-78,65-156,98-234l9,211
		c-9,17-26,8-40,13v7h111c1-2,2-4,2-7C954,399,933,407,926,388z"/>
	<path fill="#771C61" d="M1204,346c-1,1-2,2-3,2c-21,41-49,59-84,59c-66,0-103-58-103-116c0-34,13-89,58-115c14-8,28-11,42-11
		c18,0,43,5,59,23c12,12,17,26,23,39c1,1,1,1,4,1c4,0,5-1,5-5c0-3-6-39-7-58h-4c-4,3-9,6-11,6c-3,0-21-8-31-10c-15-3-44-4-47-4
		c-61,0-123,40-131,124v22c0,19,20,61,35,75c33,32,66,37,98,37c18,0,46-4,62-6c8-1,18-4,26-6c2-1,7-1,8-4c4-15,6-43,6-46
		c0-2,0-5-1-7H1204z"/>
	<path fill="#771C61" d="M547,305c41,0,85-18,85-74c0-37-32-68-75-70H335v7l2,2h22c16,0,24,17,25,30v109c-7,57-28,87-78,87
		c-45,0-74-22-79-81l1-127c0-22,24-17,37-19c3,0,4-3,4-4c0-3-1-3-1-4H153c0,1-1,1-1,4c0,2,1,4,3,5h18c10,0,19,9,20,18l1,146
		c7,61,54,81,98,81c56,0,98-38,103-110V194c0-28,24-24,40-24c18,0,41-4,38,29v172c-1,5-1,10-1,15c-3,21-29,13-40,18v7h124v-7
		c-15-6-48,4-49-24l-1-75c0-1,1-3,2-4C521,304,534,305,547,305z M507,191c1-24,11-20,26-20c40,0,61,24,61,61c0,43-32,63-67,63
		c-9,0-20-2-20-12V191z"/>
	<path fill="#771C61" d="M1388,278h-23c0-1,1-2,0-25h-18v65h17v-26c3,0,5,1,26,0v26h17v-65h-19V278z"/>
	<path fill="#771C61" d="M1440,252c-9,22-18,44-27,66h18c1-4,3-8,5-12h26c2,4,3,8,5,12h18c-9-22-18-44-27-66H1440z M1441,292
		c3-6,6-12,8-18c2,6,5,12,7,18H1441z"/>
	<path fill="#771C61" d="M1773,280v12c4,1,9,1,13,1c0,3,1,4,1,7c0,4-10,5-12,5c-12,0-19-8-19-19c0-8,5-20,18-20c2,0,6,1,9,2
		c1,1,4,4,6,4c3,0,8-8,11-12c-8-5-21-9-26-9c-21,0-36,15-36,34c0,21,14,34,36,34c10,0,18-2,28-9v-30H1773z"/>
	<polygon fill="#771C61" points="1536,287 1534,287 1508,253 1492,253 1492,318 1508,318 1508,283 1511,283 1538,318 1553,318 
		1553,253 1536,253 	"/>
	<path fill="#771C61" d="M1711,286l-1,1l-26-34h-17v65h17v-36l30,36h15v-65h-17C1711,287,1713,282,1711,286z"/>
	<rect x="1638" y="253" fill="#771C61" width="17" height="65"/>
	<path fill="#771C61" d="M1597,293h13c0,3,1,4,1,7c0,4-10,5-12,5c-10,0-19-7-19-19c0-8,5-20,18-20c2,0,6,1,9,2c1,1,4,4,6,4
		c3,0,8-8,11-12c-6-6-21-9-26-9c-20,0-35,13-35,34s12,34,35,34c9,0,21-2,29-12v-27h-30V293z"/>
</g>
<path fill-rule="evenodd" clip-rule="evenodd" fill="#AE8CA5" d="M1300,163v48h32v15h-50v-66h7C1292,160,1298,159,1300,163z"/>
<path fill-rule="evenodd" clip-rule="evenodd" fill="#AE8CA5" d="M1356,225h-17v-65c5,0,11,0,17,0V225z"/>
<polygon fill-rule="evenodd" clip-rule="evenodd" fill="#AE8CA5" points="1421,160 1421,175 1386,175 1386,188 1418,188 1418,202 
	1386,202 1386,225 1368,225 1368,160 "/>
<polygon fill-rule="evenodd" clip-rule="evenodd" fill="#AE8CA5" points="1482,175 1446,175 1446,186 1478,186 1478,200 1446,200 
	1446,211 1482,211 1482,226 1429,226 1429,161 1482,161 "/>
<path fill-rule="evenodd" clip-rule="evenodd" fill="#AE8CA5" d="M1588,356c-3,3-11,10-13,10s-12-7-15-7c-14,0-16,12-16,18
	c0,11,7,19,16,19c4,0,10-2,15-8c4,3,9,6,13,9c-11,13-19,15-29,15c-23,0-33-18-33-35c0-19,15-34,34-34C1570,343,1578,346,1588,356z"
	/>
<path fill-rule="evenodd" clip-rule="evenodd" fill="#AE8CA5" d="M1301,345l16,25c6-8,11-17,16-25h19v65h-18v-37c-6,8-12,17-17,25
	l-18-25v37h-17v-65H1301z"/>
<polygon fill-rule="evenodd" clip-rule="evenodd" fill="#AE8CA5" points="1417,345 1417,359 1383,359 1381,361 1381,370 1413,370 
	1413,384 1381,384 1381,394 1383,396 1417,396 1417,410 1364,410 1364,345 "/>
<rect x="1499" y="345" fill-rule="evenodd" clip-rule="evenodd" fill="#AE8CA5" width="17" height="65"/>
<rect x="1596" y="345" fill-rule="evenodd" clip-rule="evenodd" fill="#AE8CA5" width="17" height="65"/>
<path fill-rule="evenodd" clip-rule="evenodd" fill="#AE8CA5" d="M1642,345l27,34v-34h18v65h-16c-10-12-18-25-29-35v35h-17v-65H1642
	z"/>
<path fill-rule="evenodd" clip-rule="evenodd" fill="#AE8CA5" d="M1752,345v14h-34l-2,2v9h30c2,2,3,5,3,6c0,3-1,6-1,8h-32v10l2,2h34
	v14h-53v-65H1752z"/>
<path fill-rule="evenodd" clip-rule="evenodd" fill="#AE8CA5" d="M1461,345h-34v65h31c18,0,32-16,32-33C1490,363,1479,346,1461,345z
	 M1457,394h-11v-33h11c11,2,14,10,14,16S1467,394,1457,394z"/>
</svg>
