<?xml version="1.0" standalone="no"?>
<!DOCTYPE svg PUBLIC "-//W3C//DTD SVG 20010904//EN"
 "http://www.w3.org/TR/2001/REC-SVG-20010904/DTD/svg10.dtd">
<svg version="1.0" xmlns="http://www.w3.org/2000/svg"
 width="755.000000pt" height="755.000000pt" viewBox="0 0 755.000000 755.000000"
 preserveAspectRatio="xMidYMid meet">
<metadata>
Created by potrace 1.14, written by Peter Selinger 2001-2017
</metadata>
<g transform="translate(0.000000,755.000000) scale(0.100000,-0.100000)"
fill="#000000" stroke="none">
<path d="M2951 6638 c-11 -18 -43 -69 -70 -113 -28 -44 -82 -129 -121 -190
-38 -60 -72 -114 -77 -120 -4 -5 -30 -47 -58 -92 -27 -46 -55 -83 -63 -83 -12
0 -171 80 -367 186 -44 23 -85 40 -90 36 -6 -4 -91 -128 -190 -277 -99 -148
-183 -271 -187 -273 -5 -2 -8 -8 -8 -14 0 -6 -11 -26 -25 -43 -13 -18 -32 -52
-41 -76 -9 -24 -20 -53 -24 -64 -4 -11 -18 -49 -30 -85 -12 -36 -25 -72 -28
-80 -3 -8 -6 -17 -7 -20 -1 -3 -5 -12 -8 -20 -3 -8 -18 -49 -31 -90 -14 -41
-44 -127 -66 -190 -23 -63 -46 -131 -52 -150 -6 -19 -13 -39 -16 -45 -4 -5 -8
-16 -9 -22 -6 -25 -10 -38 -22 -68 -7 -16 -32 -86 -56 -155 -50 -143 -140
-399 -215 -610 -29 -80 -53 -150 -54 -157 -1 -7 -5 -16 -9 -19 -4 -4 -7 -14
-7 -22 0 -8 -6 -28 -14 -45 -7 -18 -23 -61 -35 -97 -12 -36 -26 -74 -31 -85
-5 -11 -13 -36 -19 -55 -5 -19 -17 -55 -27 -80 -9 -25 -34 -94 -54 -155 -21
-60 -50 -144 -65 -185 -14 -41 -30 -84 -34 -95 -5 -11 -57 -159 -117 -330 -59
-170 -112 -321 -117 -335 -6 -14 -11 -29 -13 -35 -1 -5 -30 -89 -64 -185 -34
-96 -86 -242 -115 -325 -29 -82 -57 -163 -64 -178 -6 -16 -11 -34 -11 -41 0
-7 -3 -16 -7 -20 -4 -3 -8 -12 -10 -19 -3 -16 -86 -253 -102 -292 -7 -16 -15
-42 -18 -58 -3 -15 -10 -30 -14 -33 -5 -3 -9 -15 -9 -28 0 -12 -4 -26 -8 -31
-4 -6 -16 -35 -26 -65 -11 -30 -22 -59 -26 -65 -4 -5 -10 -20 -13 -33 l-5 -22
3774 0 c2076 0 3774 3 3774 5 0 3 -8 15 -19 26 -16 18 -171 269 -180 293 -2 6
-7 13 -10 16 -4 3 -12 16 -19 30 -7 14 -21 39 -31 55 -10 17 -91 152 -179 300
-88 149 -165 275 -171 281 -5 7 -8 14 -5 17 2 2 -2 10 -11 17 -8 7 -15 19 -15
26 0 8 -4 14 -10 14 -5 0 -10 6 -10 14 0 8 -6 21 -13 28 -7 7 -18 24 -25 38
-7 14 -20 37 -30 52 -9 15 -42 69 -72 120 -30 51 -96 162 -147 247 -51 85 -93
157 -93 161 0 3 -156 84 -347 180 -192 95 -352 180 -358 188 -11 18 -65 118
-145 267 -58 109 -102 192 -176 330 -26 50 -66 126 -90 170 -23 44 -57 109
-76 145 -19 36 -56 106 -83 155 -119 224 -139 263 -165 310 -15 28 -56 104
-90 170 -35 66 -75 143 -91 171 -50 91 -199 393 -199 404 0 5 -4 10 -10 10 -5
0 -10 4 -10 9 0 5 -19 49 -42 98 -23 48 -42 90 -43 93 0 3 -18 41 -39 85 -35
73 -144 351 -183 466 -13 39 -24 52 -70 80 -30 19 -61 40 -68 47 -8 6 -16 12
-19 12 -4 0 -43 24 -89 54 -126 82 -222 143 -244 154 -19 11 -19 7 -19 -180 1
-104 -2 -194 -5 -199 -3 -5 -70 24 -150 66 -79 41 -151 78 -159 81 -8 3 -24
10 -34 16 -11 5 -72 37 -138 70 l-118 59 -1 37 c-5 248 -8 325 -16 332 -4 5
-22 16 -40 27 -44 25 -173 103 -200 121 -21 13 -24 12 -42 -20z"/>
</g>
</svg>
