<?xml version="1.0" encoding="UTF-8" standalone="no"?>
<svg
   xmlns:dc="http://purl.org/dc/elements/1.1/"
   xmlns:cc="http://creativecommons.org/ns#"
   xmlns:rdf="http://www.w3.org/1999/02/22-rdf-syntax-ns#"
   xmlns:svg="http://www.w3.org/2000/svg"
   xmlns="http://www.w3.org/2000/svg"
   viewBox="0 0 755.37335 578.61334"
   height="578.61334"
   width="755.37335"
   xml:space="preserve"
   id="svg2"
   version="1.1"><metadata
     id="metadata8"><rdf:RDF><cc:Work
         rdf:about=""><dc:format>image/svg+xml</dc:format><dc:type
           rdf:resource="http://purl.org/dc/dcmitype/StillImage" /></cc:Work></rdf:RDF></metadata><defs
     id="defs6" /><g
     transform="matrix(1.3333333,0,0,-1.3333333,0,578.61333)"
     id="g10"><g
       transform="scale(0.1)"
       id="g12"><path
         id="path14"
         style="fill:#5cc464;fill-opacity:1;fill-rule:nonzero;stroke:none"
         d="M 795.828,47.5508 H 20.0508 L 1247.18,3540.48 l 333.6,499.18 345.5,-180.56 303.95,480.46 L 2169.6,3870 1035.39,2937.63 1893.43,2940.31 1510.61,1930.64 617.48,1748.09 1326.99,1446.38 952.273,458.082 795.828,47.5508" /><path
         id="path16"
         style="fill:#3842a0;fill-opacity:1;fill-rule:nonzero;stroke:none"
         d="m 3629.97,2945.73 -262.11,159.3 -1237.73,459.25 39.47,305.72 v 0 l 60.63,469.56 100.22,-60.68 100.21,-60.68 3.49,-89.51 3.5,-185.03 226.8,-115.45 226.8,-115.46 v 305.26 l 183.8,-116.53 183.8,-116.53 60.21,-159.25 60.21,-159.26 122.44,-264.4 128.26,-256.31" /><path
         id="path18"
         style="fill:#6acff6;fill-opacity:1;fill-rule:nonzero;stroke:none"
         d="M 1035.39,2937.63 2169.6,3870 l -39.47,-305.72 -0.1,0.04 -236.6,-624.01 -858.04,-2.68" /><path
         id="path20"
         style="fill:#ee1970;fill-opacity:1;fill-rule:nonzero;stroke:none"
         d="M 5631.51,47.5508 H 4616.53 L 3908.63,2420.8 4357.9,1574.53 4877.57,1314.83 5631.51,47.5508 m -1014.98,0 H 795.828 1676.09 L 1829.12,1232.86 4616.53,47.5508" /><path
         id="path22"
         style="fill:#fffcc4;fill-opacity:1;fill-rule:nonzero;stroke:none"
         d="M 1676.09,47.5508 H 795.828 L 952.273,458.082 1326.99,1446.38 1829.12,1232.86 1676.09,47.5508" /><path
         id="path24"
         style="fill:#ee1970;fill-opacity:1;fill-rule:nonzero;stroke:none"
         d="m 1930.29,2016.42 119.34,924.38 1580.34,4.93 278.66,-524.93 -1978.34,-404.38" /><path
         id="path26"
         style="fill:#fffcc4;fill-opacity:1;fill-rule:nonzero;stroke:none"
         d="m 1510.61,1930.64 382.82,1009.67 156.2,0.49 -119.34,-924.38 -419.68,-85.78" /><path
         id="path28"
         style="fill:#f036a4;fill-opacity:1;fill-rule:nonzero;stroke:none"
         d="m 2049.63,2940.8 80.5,623.48 1237.73,-459.25 262.11,-159.3 -1580.34,-4.93" /><path
         id="path30"
         style="fill:#ffffff;fill-opacity:1;fill-rule:nonzero;stroke:none"
         d="m 1893.43,2940.31 236.6,624.01 0.1,-0.04 -80.5,-623.48 -156.2,-0.49" /><path
         id="path32"
         style="fill:#6acff6;fill-opacity:1;fill-rule:nonzero;stroke:none"
         d="m 1326.99,1446.38 -709.51,301.71 893.13,182.55 -183.62,-484.26" /><path
         id="path34"
         style="fill:#3842a0;fill-opacity:1;fill-rule:nonzero;stroke:none"
         d="m 3908.64,2420.8 h -0.01 v 0" /><path
         id="path36"
         style="fill:#f036a4;fill-opacity:1;fill-rule:nonzero;stroke:none"
         d="m 4616.53,47.5508 v 0 m 0,0 -2787.41,1185.3092 101.17,783.56 1978.34,404.38 h 0.01 L 4616.53,47.5508" /><path
         id="path38"
         style="fill:#ffffff;fill-opacity:1;fill-rule:nonzero;stroke:none"
         d="m 1829.12,1232.86 -502.13,213.52 183.62,484.26 419.68,85.78 -101.17,-783.56" /><path
         id="path40"
         style="fill:#5fc67e;fill-opacity:1;fill-rule:nonzero;stroke:none"
         d="M 2174.35,47.5508 2416.76,3848.41 2476.17,47.5508 h -301.82" /><path
         id="path42"
         style="fill:#5fc67e;fill-opacity:1;fill-rule:nonzero;stroke:none"
         d="M 2740.4,47.5508 2708.63,3306.83 3089.87,47.5508 H 2740.4" /><path
         id="path44"
         style="fill:#5fc67e;fill-opacity:1;fill-rule:nonzero;stroke:none"
         d="M 2948.61,3448.62 3404.38,47.5508 h 504.25 L 2948.61,3448.62" /><path
         id="path46"
         style="fill:#5fc67e;fill-opacity:1;fill-rule:nonzero;stroke:none"
         d="M 3132.88,3584.79 4286.83,47.5508 h 669.1 L 3132.88,3584.79" /><path
         id="path48"
         style="fill:#ee1970;fill-opacity:1;fill-rule:nonzero;stroke:none"
         d="M 5665.35,0.78125 0,0 30.082,76.1016 H 5614.52 l 50.83,-75.32035" /></g></g></svg>