<?xml version="1.0" encoding="utf-8"?>
<!DOCTYPE svg PUBLIC "-//W3C//DTD SVG 1.1//EN" "http://www.w3.org/Graphics/SVG/1.1/DTD/svg11.dtd">
<svg version="1.1" id="Layer_1" xmlns="http://www.w3.org/2000/svg" xmlns:xlink="http://www.w3.org/1999/xlink" x="0px" y="0px"
	 width="125.063px" height="107.698px" viewBox="0 0 125.063 107.698" enable-background="new 0 0 125.063 107.698"
	 xml:space="preserve">
<g>
	<path fill="#FFFFFF" stroke="#FFFFFF" stroke-width="7.0457" d="M121.539,44.279L121.539,44.279l0.002-34.649
		c0-2.875-2.423-6.107-6.35-6.107H10.297c-4.351,0-6.774,2.231-6.774,6.32v35.569"/>
	<path fill="#FFFFFF" stroke="#FFFFFF" stroke-width="7.0457" d="M3.523,45.413v29.923c0.243,9.885,11.884,12.845,11.905,12.845
		l46.906,15.801l47.06-15.83c-0.01,0.029,12.146-2.96,12.146-13.027l-0.002-30.845"/>
	<path fill="#004F99" d="M121.541,43.009V9.63c0-2.875-2.423-6.107-6.35-6.107H10.297c-4.351,0-6.774,2.231-6.774,6.32v21.934
		c0.031,0.082,0.046,11.236,0.006,11.236h118.008L121.541,43.009L121.541,43.009z"/>
	<path fill="#EF3E42" d="M3.533,46.793c0.027,0.015-0.042,12.282-0.01,12.254v16.289c0.243,9.885,11.884,12.845,11.905,12.845
		l46.906,15.801l47.06-15.83c-0.01,0.029,12.146-2.96,12.146-13.027V46.813l-0.004-0.006H3.559L3.533,46.793L3.533,46.793z"/>
	<path fill="#FFFFFF" d="M25.793,85.358c0.033,0.021,11.527-31.279,11.459-31.341h7.438c0.046,0.012,12.282,31.296,12.172,31.341
		h-7.422l-1.9-5.006H34.918l-1.802,5.006H25.793L25.793,85.358z M45.251,74.31l-3.965-10.543l-0.093-0.121L37.371,74.31H45.251
		L45.251,74.31z"/>
	<polygon fill="#FFFFFF" points="60.025,54.199 67.388,54.199 67.388,85.298 60.025,85.298 60.025,54.199 	"/>
	<path fill="#FFFFFF" d="M72.667,54.199H88c4.57,0,11.855,3.834,11.92,14.918c0.049,8.742-3.794,16.181-14.518,16.181H72.667V54.199
		L72.667,54.199z M79.671,79.662h4.67c7.046,0,8.69-4.701,8.64-9.815c-0.062-6.146-1.552-9.831-8.169-9.831h-5.141V79.662
		L79.671,79.662z"/>
	<polygon fill="#FFFFFF" points="48.871,8.648 56.57,8.648 56.57,37.52 48.871,37.52 48.871,8.648 	"/>
	<polygon fill="#FFFFFF" points="58.822,8.648 81.102,8.648 81.102,15.125 73.773,15.125 73.773,37.52 66.255,37.52 66.255,15.125 
		58.822,15.125 58.822,8.648 	"/>
	<polygon fill="#FFFFFF" points="103.628,20.125 103.628,26.236 90.792,26.236 90.792,31.409 105.892,31.409 105.892,37.52 
		83.759,37.52 83.759,8.648 105.892,8.648 105.892,15.125 90.792,15.125 90.792,20.125 103.628,20.125 	"/>
	<path fill="#FFFFFF" d="M20.521,8.698h15.216c7.4,0,10.428,4.249,10.428,9.89c0,3.323-2.025,7.167-6.18,8.801
		c0.035-0.013,6.67,10.283,6.544,10.18h-9.174c0.037,0.019-11.207-15.158-11.242-15.165c0.05,0.008,8.247,0,8.263,0
		c0.9,0,4.26-0.15,4.292-3.717c0.031-3.582-3.021-3.885-4.304-3.885h-6.831v22.767h-7.013V8.698L20.521,8.698z"/>
	<path fill="#004F99" d="M107.015,96.941c0-2.083,1.688-3.618,3.685-3.618c1.976,0,3.665,1.535,3.665,3.618
		c0,2.101-1.689,3.636-3.665,3.636C108.704,100.577,107.015,99.042,107.015,96.941z M110.7,99.973c1.641,0,2.935-1.285,2.935-3.031
		c0-1.718-1.294-3.014-2.935-3.014c-1.66,0-2.956,1.296-2.956,3.014C107.744,98.688,109.04,99.973,110.7,99.973z M109.931,99.042
		h-0.633v-4.184h1.593c0.988,0,1.478,0.365,1.478,1.189c0,0.749-0.47,1.075-1.084,1.152l1.189,1.842h-0.711l-1.103-1.814h-0.729
		V99.042z M110.691,96.691c0.536,0,1.016-0.038,1.016-0.682c0-0.518-0.471-0.614-0.91-0.614h-0.865v1.296H110.691z"/>
</g>
</svg>
